{
  "notes": [
    {
      "pitch": 43,
      "velocity": 85,
      "start_time_seconds": 0.0,
      "duration_seconds": 0.4,
      "track_index": 0
    },
    {
      "pitch": 47,
      "velocity": 95,
      "start_time_seconds": 0.6,
      "duration_seconds": 0.4,
      "track_index": 0
    },
    {
      "pitch": 43,
      "velocity": 105,
      "start_time_seconds": 1.0,
      "duration_seconds": 0.4,
      "track_index": 0
    },
    {
      "pitch": 48,
      "velocity": 85,
      "start_time_seconds": 1.6,
      "duration_seconds": 0.4,
      "track_index": 0
    },
    {
      "pitch": 43,
      "velocity": 85,
      "start_time_seconds": 2.0,
      "duration_seconds": 0.4,
      "track_index": 0
    },
    {
      "pitch": 47,
      "velocity": 95,
      "start_time_seconds": 2.6,
      "duration_seconds": 0.4,
      "track_index": 0
    },
    {
      "pitch": 43,
      "velocity": 105,
      "start_time_seconds": 3.0,
      "duration_seconds": 0.4,
      "track_index": 0
    },
    {
      "pitch": 48,
      "velocity": 85,
      "start_time_seconds": 3.6,
      "duration_seconds": 0.4,
      "track_index": 0
    },
    {
      "pitch": 43,
      "velocity": 85,
      "start_time_seconds": 4.0,
      "duration_seconds": 0.4,
      "track_index": 0
    },
    {
      "pitch": 47,
      "velocity": 95,
      "start_time_seconds": 4.6,
      "duration_seconds": 0.4,
      "track_index": 0
    },
    {
      "pitch": 43,
      "velocity": 105,
      "start_time_seconds": 5.0,
      "duration_seconds": 0.4,
      "track_index": 0
    },
    {
      "pitch": 48,
      "velocity": 85,
      "start_time_seconds": 5.6,
      "duration_seconds": 0.4,
      "track_index": 0
    },
    {
      "pitch": 43,
      "velocity": 85,
      "start_time_seconds": 6.0,
      "duration_seconds": 0.4,
      "track_index": 0
    },
    {
      "pitch": 47,
      "velocity": 95,
      "start_time_seconds": 6.6,
      "duration_seconds": 0.4,
      "track_index": 0
    },
    {
      "pitch": 43,
      "velocity": 105,
      "start_time_seconds": 7.0,
      "duration_seconds": 0.4,
      "track_index": 0
    },
    {
      "pitch": 48,
      "velocity": 85,
      "start_time_seconds": 7.6,
      "duration_seconds": 0.4,
      "track_index": 0
    },
    {
      "pitch": 43,
      "velocity": 85,
      "start_time_seconds": 8.0,
      "duration_seconds": 0.4,
      "track_index": 0
    },
    {
      "pitch": 45,
      "velocity": 95,
      "start_time_seconds": 8.6,
      "duration_seconds": 0.4,
      "track_index": 0
    },
    {
      "pitch": 47,
      "velocity": 105,
      "start_time_seconds": 9.0,
      "duration_seconds": 0.4,
      "track_index": 0
    },
    {
      "pitch": 48,
      "velocity": 85,
      "start_time_seconds": 9.6,
      "duration_seconds": 0.4,
      "track_index": 0
    },
    {
      "pitch": 43,
      "velocity": 95,
      "start_time_seconds": 10.0,
      "duration_seconds": 0.4,
      "track_index": 0
    },
    {
      "pitch": 47,
      "velocity": 105,
      "start_time_seconds": 10.6,
      "duration_seconds": 0.4,
      "track_index": 0
    },
    {
      "pitch": 45,
      "velocity": 85,
      "start_time_seconds": 11.0,
      "duration_seconds": 0.4,
      "track_index": 0
    },
    {
      "pitch": 50,
      "velocity": 95,
      "start_time_seconds": 11.6,
      "duration_seconds": 0.4,
      "track_index": 0
    },
    {
      "pitch": 43,
      "velocity": 85,
      "start_time_seconds": 10.0,
      "duration_seconds": 0.4,
      "track_index": 0
    },
    {
      "pitch": 45,
      "velocity": 95,
      "start_time_seconds": 10.6,
      "duration_seconds": 0.4,
      "track_index": 0
    },
    {
      "pitch": 47,
      "velocity": 105,
      "start_time_seconds": 11.0,
      "duration_seconds": 0.4,
      "track_index": 0
    },
    {
      "pitch": 48,
      "velocity": 85,
      "start_time_seconds": 11.6,
      "duration_seconds": 0.4,
      "track_index": 0
    },
    {
      "pitch": 43,
      "velocity": 95,
      "start_time_seconds": 12.0,
      "duration_seconds": 0.4,
      "track_index": 0
    },
    {
      "pitch": 47,
      "velocity": 105,
      "start_time_seconds": 12.6,
      "duration_seconds": 0.4,
      "track_index": 0
    },
    {
      "pitch": 45,
      "velocity": 85,
      "start_time_seconds": 13.0,
      "duration_seconds": 0.4,
      "track_index": 0
    },
    {
      "pitch": 50,
      "velocity": 95,
      "start_time_seconds": 13.6,
      "duration_seconds": 0.4,
      "track_index": 0
    },
    {
      "pitch": 43,
      "velocity": 85,
      "start_time_seconds": 12.0,
      "duration_seconds": 0.4,
      "track_index": 0
    },
    {
      "pitch": 45,
      "velocity": 95,
      "start_time_seconds": 12.6,
      "duration_seconds": 0.4,
      "track_index": 0
    },
    {
      "pitch": 47,
      "velocity": 105,
      "start_time_seconds": 13.0,
      "duration_seconds": 0.4,
      "track_index": 0
    },
    {
      "pitch": 48,
      "velocity": 85,
      "start_time_seconds": 13.6,
      "duration_seconds": 0.4,
      "track_index": 0
    },
    {
      "pitch": 43,
      "velocity": 95,
      "start_time_seconds": 14.0,
      "duration_seconds": 0.4,
      "track_index": 0
    },
    {
      "pitch": 47,
      "velocity": 105,
      "start_time_seconds": 14.6,
      "duration_seconds": 0.4,
      "track_index": 0
    },
    {
      "pitch": 45,
      "velocity": 85,
      "start_time_seconds": 15.0,
      "duration_seconds": 0.4,
      "track_index": 0
    },
    {
      "pitch": 50,
      "velocity": 95,
      "start_time_seconds": 15.6,
      "duration_seconds": 0.4,
      "track_index": 0
    },
    {
      "pitch": 43,
      "velocity": 85,
      "start_time_seconds": 14.0,
      "duration_seconds": 0.4,
      "track_index": 0
    },
    {
      "pitch": 45,
      "velocity": 95,
      "start_time_seconds": 14.6,
      "duration_seconds": 0.4,
      "track_index": 0
    },
    {
      "pitch": 47,
      "velocity": 105,
      "start_time_seconds": 15.0,
      "duration_seconds": 0.4,
      "track_index": 0
    },
    {
      "pitch": 48,
      "velocity": 85,
      "start_time_seconds": 15.6,
      "duration_seconds": 0.4,
      "track_index": 0
    },
    {
      "pitch": 43,
      "velocity": 95,
      "start_time_seconds": 16.0,
      "duration_seconds": 0.4,
      "track_index": 0
    },
    {
      "pitch": 47,
      "velocity": 105,
      "start_time_seconds": 16.6,
      "duration_seconds": 0.4,
      "track_index": 0
    },
    {
      "pitch": 45,
      "velocity": 85,
      "start_time_seconds": 17.0,
      "duration_seconds": 0.4,
      "track_index": 0
    },
    {
      "pitch": 50,
      "velocity": 95,
      "start_time_seconds": 17.6,
      "duration_seconds": 0.4,
      "track_index": 0
    },
    {
      "pitch": 43,
      "velocity": 85,
      "start_time_seconds": 16.0,
      "duration_seconds": 0.4,
      "track_index": 0
    },
    {
      "pitch": 47,
      "velocity": 95,
      "start_time_seconds": 16.6,
      "duration_seconds": 0.4,
      "track_index": 0
    },
    {
      "pitch": 45,
      "velocity": 105,
      "start_time_seconds": 17.0,
      "duration_seconds": 0.4,
      "track_index": 0
    },
    {
      "pitch": 48,
      "velocity": 85,
      "start_time_seconds": 17.6,
      "duration_seconds": 0.4,
      "track_index": 0
    },
    {
      "pitch": 47,
      "velocity": 95,
      "start_time_seconds": 18.0,
      "duration_seconds": 0.4,
      "track_index": 0
    },
    {
      "pitch": 50,
      "velocity": 105,
      "start_time_seconds": 18.6,
      "duration_seconds": 0.4,
      "track_index": 0
    },
    {
      "pitch": 45,
      "velocity": 85,
      "start_time_seconds": 19.0,
      "duration_seconds": 0.4,
      "track_index": 0
    },
    {
      "pitch": 52,
      "velocity": 95,
      "start_time_seconds": 19.6,
      "duration_seconds": 0.4,
      "track_index": 0
    },
    {
      "pitch": 43,
      "velocity": 105,
      "start_time_seconds": 20.0,
      "duration_seconds": 0.4,
      "track_index": 0
    },
    {
      "pitch": 48,
      "velocity": 85,
      "start_time_seconds": 20.6,
      "duration_seconds": 0.4,
      "track_index": 0
    },
    {
      "pitch": 47,
      "velocity": 95,
      "start_time_seconds": 21.0,
      "duration_seconds": 0.4,
      "track_index": 0
    },
    {
      "pitch": 50,
      "velocity": 105,
      "start_time_seconds": 21.6,
      "duration_seconds": 0.4,
      "track_index": 0
    },
    {
      "pitch": 43,
      "velocity": 85,
      "start_time_seconds": 18.0,
      "duration_seconds": 0.4,
      "track_index": 0
    },
    {
      "pitch": 47,
      "velocity": 95,
      "start_time_seconds": 18.6,
      "duration_seconds": 0.4,
      "track_index": 0
    },
    {
      "pitch": 45,
      "velocity": 105,
      "start_time_seconds": 19.0,
      "duration_seconds": 0.4,
      "track_index": 0
    },
    {
      "pitch": 48,
      "velocity": 85,
      "start_time_seconds": 19.6,
      "duration_seconds": 0.4,
      "track_index": 0
    },
    {
      "pitch": 47,
      "velocity": 95,
      "start_time_seconds": 20.0,
      "duration_seconds": 0.4,
      "track_index": 0
    },
    {
      "pitch": 50,
      "velocity": 105,
      "start_time_seconds": 20.6,
      "duration_seconds": 0.4,
      "track_index": 0
    },
    {
      "pitch": 45,
      "velocity": 85,
      "start_time_seconds": 21.0,
      "duration_seconds": 0.4,
      "track_index": 0
    },
    {
      "pitch": 52,
      "velocity": 95,
      "start_time_seconds": 21.6,
      "duration_seconds": 0.4,
      "track_index": 0
    },
    {
      "pitch": 43,
      "velocity": 105,
      "start_time_seconds": 22.0,
      "duration_seconds": 0.4,
      "track_index": 0
    },
    {
      "pitch": 48,
      "velocity": 85,
      "start_time_seconds": 22.6,
      "duration_seconds": 0.4,
      "track_index": 0
    },
    {
      "pitch": 47,
      "velocity": 95,
      "start_time_seconds": 23.0,
      "duration_seconds": 0.4,
      "track_index": 0
    },
    {
      "pitch": 50,
      "velocity": 105,
      "start_time_seconds": 23.6,
      "duration_seconds": 0.4,
      "track_index": 0
    },
    {
      "pitch": 43,
      "velocity": 85,
      "start_time_seconds": 20.0,
      "duration_seconds": 0.4,
      "track_index": 0
    },
    {
      "pitch": 47,
      "velocity": 95,
      "start_time_seconds": 20.6,
      "duration_seconds": 0.4,
      "track_index": 0
    },
    {
      "pitch": 45,
      "velocity": 105,
      "start_time_seconds": 21.0,
      "duration_seconds": 0.4,
      "track_index": 0
    },
    {
      "pitch": 48,
      "velocity": 85,
      "start_time_seconds": 21.6,
      "duration_seconds": 0.4,
      "track_index": 0
    },
    {
      "pitch": 47,
      "velocity": 95,
      "start_time_seconds": 22.0,
      "duration_seconds": 0.4,
      "track_index": 0
    },
    {
      "pitch": 50,
      "velocity": 105,
      "start_time_seconds": 22.6,
      "duration_seconds": 0.4,
      "track_index": 0
    },
    {
      "pitch": 45,
      "velocity": 85,
      "start_time_seconds": 23.0,
      "duration_seconds": 0.4,
      "track_index": 0
    },
    {
      "pitch": 52,
      "velocity": 95,
      "start_time_seconds": 23.6,
      "duration_seconds": 0.4,
      "track_index": 0
    },
    {
      "pitch": 43,
      "velocity": 105,
      "start_time_seconds": 24.0,
      "duration_seconds": 0.4,
      "track_index": 0
    },
    {
      "pitch": 48,
      "velocity": 85,
      "start_time_seconds": 24.6,
      "duration_seconds": 0.4,
      "track_index": 0
    },
    {
      "pitch": 47,
      "velocity": 95,
      "start_time_seconds": 25.0,
      "duration_seconds": 0.4,
      "track_index": 0
    },
    {
      "pitch": 50,
      "velocity": 105,
      "start_time_seconds": 25.6,
      "duration_seconds": 0.4,
      "track_index": 0
    },
    {
      "pitch": 43,
      "velocity": 85,
      "start_time_seconds": 22.0,
      "duration_seconds": 0.4,
      "track_index": 0
    },
    {
      "pitch": 47,
      "velocity": 95,
      "start_time_seconds": 22.6,
      "duration_seconds": 0.4,
      "track_index": 0
    },
    {
      "pitch": 45,
      "velocity": 105,
      "start_time_seconds": 23.0,
      "duration_seconds": 0.4,
      "track_index": 0
    },
    {
      "pitch": 48,
      "velocity": 85,
      "start_time_seconds": 23.6,
      "duration_seconds": 0.4,
      "track_index": 0
    },
    {
      "pitch": 47,
      "velocity": 95,
      "start_time_seconds": 24.0,
      "duration_seconds": 0.4,
      "track_index": 0
    },
    {
      "pitch": 50,
      "velocity": 105,
      "start_time_seconds": 24.6,
      "duration_seconds": 0.4,
      "track_index": 0
    },
    {
      "pitch": 45,
      "velocity": 85,
      "start_time_seconds": 25.0,
      "duration_seconds": 0.4,
      "track_index": 0
    },
    {
      "pitch": 52,
      "velocity": 95,
      "start_time_seconds": 25.6,
      "duration_seconds": 0.4,
      "track_index": 0
    },
    {
      "pitch": 43,
      "velocity": 105,
      "start_time_seconds": 26.0,
      "duration_seconds": 0.4,
      "track_index": 0
    },
    {
      "pitch": 48,
      "velocity": 85,
      "start_time_seconds": 26.6,
      "duration_seconds": 0.4,
      "track_index": 0
    },
    {
      "pitch": 47,
      "velocity": 95,
      "start_time_seconds": 27.0,
      "duration_seconds": 0.4,
      "track_index": 0
    },
    {
      "pitch": 50,
      "velocity": 105,
      "start_time_seconds": 27.6,
      "duration_seconds": 0.4,
      "track_index": 0
    },
    {
      "pitch": 43,
      "velocity": 85,
      "start_time_seconds": 24.0,
      "duration_seconds": 0.4,
      "track_index": 0
    },
    {
      "pitch": 47,
      "velocity": 95,
      "start_time_seconds": 24.6,
      "duration_seconds": 0.4,
      "track_index": 0
    },
    {
      "pitch": 43,
      "velocity": 105,
      "start_time_seconds": 25.0,
      "duration_seconds": 0.4,
      "track_index": 0
    },
    {
      "pitch": 48,
      "velocity": 85,
      "start_time_seconds": 25.6,
      "duration_seconds": 0.4,
      "track_index": 0
    },
    {
      "pitch": 43,
      "velocity": 95,
      "start_time_seconds": 26.0,
      "duration_seconds": 0.4,
      "track_index": 0
    },
    {
      "pitch": 47,
      "velocity": 105,
      "start_time_seconds": 26.6,
      "duration_seconds": 0.4,
      "track_index": 0
    },
    {
      "pitch": 45,
      "velocity": 85,
      "start_time_seconds": 27.0,
      "duration_seconds": 0.4,
      "track_index": 0
    },
    {
      "pitch": 50,
      "velocity": 95,
      "start_time_seconds": 27.6,
      "duration_seconds": 0.4,
      "track_index": 0
    },
    {
      "pitch": 43,
      "velocity": 85,
      "start_time_seconds": 26.0,
      "duration_seconds": 0.4,
      "track_index": 0
    },
    {
      "pitch": 47,
      "velocity": 95,
      "start_time_seconds": 26.6,
      "duration_seconds": 0.4,
      "track_index": 0
    },
    {
      "pitch": 43,
      "velocity": 105,
      "start_time_seconds": 27.0,
      "duration_seconds": 0.4,
      "track_index": 0
    },
    {
      "pitch": 48,
      "velocity": 85,
      "start_time_seconds": 27.6,
      "duration_seconds": 0.4,
      "track_index": 0
    },
    {
      "pitch": 43,
      "velocity": 95,
      "start_time_seconds": 28.0,
      "duration_seconds": 0.4,
      "track_index": 0
    },
    {
      "pitch": 47,
      "velocity": 105,
      "start_time_seconds": 28.6,
      "duration_seconds": 0.4,
      "track_index": 0
    },
    {
      "pitch": 45,
      "velocity": 85,
      "start_time_seconds": 29.0,
      "duration_seconds": 0.4,
      "track_index": 0
    },
    {
      "pitch": 50,
      "velocity": 95,
      "start_time_seconds": 29.6,
      "duration_seconds": 0.4,
      "track_index": 0
    },
    {
      "pitch": 43,
      "velocity": 85,
      "start_time_seconds": 28.0,
      "duration_seconds": 0.4,
      "track_index": 0
    },
    {
      "pitch": 47,
      "velocity": 95,
      "start_time_seconds": 28.6,
      "duration_seconds": 0.4,
      "track_index": 0
    },
    {
      "pitch": 43,
      "velocity": 105,
      "start_time_seconds": 29.0,
      "duration_seconds": 0.4,
      "track_index": 0
    },
    {
      "pitch": 48,
      "velocity": 85,
      "start_time_seconds": 29.6,
      "duration_seconds": 0.4,
      "track_index": 0
    },
    {
      "pitch": 43,
      "velocity": 95,
      "start_time_seconds": 30.0,
      "duration_seconds": 0.4,
      "track_index": 0
    },
    {
      "pitch": 47,
      "velocity": 105,
      "start_time_seconds": 30.6,
      "duration_seconds": 0.4,
      "track_index": 0
    },
    {
      "pitch": 45,
      "velocity": 85,
      "start_time_seconds": 31.0,
      "duration_seconds": 0.4,
      "track_index": 0
    },
    {
      "pitch": 50,
      "velocity": 95,
      "start_time_seconds": 31.6,
      "duration_seconds": 0.4,
      "track_index": 0
    },
    {
      "pitch": 43,
      "velocity": 85,
      "start_time_seconds": 30.0,
      "duration_seconds": 0.4,
      "track_index": 0
    },
    {
      "pitch": 47,
      "velocity": 95,
      "start_time_seconds": 30.6,
      "duration_seconds": 0.4,
      "track_index": 0
    },
    {
      "pitch": 43,
      "velocity": 105,
      "start_time_seconds": 31.0,
      "duration_seconds": 0.4,
      "track_index": 0
    },
    {
      "pitch": 48,
      "velocity": 85,
      "start_time_seconds": 31.6,
      "duration_seconds": 0.4,
      "track_index": 0
    },
    {
      "pitch": 43,
      "velocity": 95,
      "start_time_seconds": 32.0,
      "duration_seconds": 0.4,
      "track_index": 0
    },
    {
      "pitch": 47,
      "velocity": 105,
      "start_time_seconds": 32.6,
      "duration_seconds": 0.4,
      "track_index": 0
    },
    {
      "pitch": 45,
      "velocity": 85,
      "start_time_seconds": 33.0,
      "duration_seconds": 0.4,
      "track_index": 0
    },
    {
      "pitch": 50,
      "velocity": 95,
      "start_time_seconds": 33.6,
      "duration_seconds": 0.4,
      "track_index": 0
    }
  ],
  "tempo": 120,
  "key": "G minor",
  "time_signature": "4/4",
  "style_notes": "Jeff Ament Pearl Jam style - raw, aggressive, syncopated bass line with 16 measures of building intensity"
}